<?xml version="1.0" encoding="iso-8859-1"?>
<!-- Generator: Adobe Illustrator 19.0.0, SVG Export Plug-In . SVG Version: 6.00 Build 0)  -->
<svg version="1.1" id="Capa_1" xmlns="http://www.w3.org/2000/svg" xmlns:xlink="http://www.w3.org/1999/xlink" x="0px" y="0px"
	 viewBox="0 0 512 512" style="enable-background:new 0 0 512 512;" xml:space="preserve">
<circle style="fill:#87DCFF;" cx="256" cy="256" r="256"/>
<path style="fill:#00C3FF;" d="M339.957,428.043c-141.385,0-256-114.615-256-256c0-49.18,13.896-95.102,37.935-134.107
	C48.766,83.005,0,163.795,0,256c0,141.385,114.615,256,256,256c92.205,0,172.996-48.766,218.065-121.893
	C435.059,414.147,389.138,428.043,339.957,428.043z"/>
<g>
	<path style="fill:#BEE86E;" d="M288.355,348.218c-0.202,0-0.395-0.008-0.597-0.024l-13.935-1
		c-5.234-0.363-10.137-2.347-14.169-5.742l-25.823-21.669c-3.492-2.927-3.952-8.137-1.016-11.629
		c2.919-3.492,8.137-3.952,11.629-1.016l25.839,21.677c1.331,1.113,2.992,1.79,4.702,1.903l13.952,1.008
		c4.548,0.323,7.976,4.274,7.645,8.823C296.274,344.895,292.645,348.218,288.355,348.218z"/>
	<path style="fill:#BEE86E;" d="M372.121,164.129c-1.75,0-3.508-0.556-5.008-1.702c-3.621-2.766-4.315-7.952-1.54-11.573
		l12.548-16.419l4.21-13.089c1.403-4.347,6.065-6.702,10.387-5.339c4.347,1.395,6.734,6.048,5.339,10.387l-4.645,14.452
		c-0.29,0.903-0.734,1.742-1.306,2.492l-13.419,17.548C377.065,163.016,374.605,164.129,372.121,164.129z"/>
	<path style="fill:#BEE86E;" d="M328.258,264.944c-3.508,0-6.766-2.25-7.871-5.774l-8.258-26.145
		c-1.379-4.347,1.032-8.984,5.387-10.355c4.339-1.387,8.992,1.04,10.355,5.387l8.258,26.145c1.379,4.347-1.032,8.984-5.387,10.355
		C329.919,264.823,329.081,264.944,328.258,264.944z"/>
	<path style="fill:#BEE86E;" d="M274.471,306.868l18.434,6.859c3.42,1.272,7.269,0.15,9.469-2.761l11.47-15.18
		c3.741-4.951,0.889-12.104-5.231-13.124l-21.483-3.581c-3.735-0.622-7.415,1.375-8.928,4.846l-6.825,15.657
		C270.126,302.45,271.54,305.777,274.471,306.868z"/>
	<path style="fill:#BEE86E;" d="M352.835,302.206l26.913,12.233c4.83,2.196,10.422,1.937,15.029-0.696l5.656-3.232
		c3.145-1.797,3.694-6.105,1.101-8.633l-14.206-13.851c-4.905-4.782-12.252-6.04-18.469-3.162l-16.058,7.434
		C348.572,294.258,348.593,300.277,352.835,302.206z"/>
	<path style="fill:#BEE86E;" d="M407.078,380.994l-9.315-34.155l-19.957,4.817l-26.686-11.86c-2.656-1.18-5.737-0.878-8.112,0.797
		l-38.148,26.892l-16.438,3.131c-7.351,1.4-12.842,7.567-13.383,15.031l-1.375,18.973c-0.604,8.335,6.366,15.245,14.695,14.57
		l60.543-4.909l14.355,17.133c3.508,4.186,10.04,3.876,13.135-0.625l29.524-42.943C407.292,385.843,407.717,383.337,407.078,380.994
		z"/>
</g>
<path style="fill:#AFD755;" d="M34.541,260.521c2.031-5.575-0.714-11.774-6.191-14.057c-1.794-0.748-3.06-1.272-3.172-1.287
	c-4.444-0.589-8.363-2.887-11.048-6.476l-11.756-15.67C0.958,233.844,0,244.8,0,256c0,55.346,17.622,106.545,47.479,148.417
	l-1.315-64.458c-0.037-1.824-0.376-3.628-1.003-5.341l-15.87-43.361c-1.602-4.376-1.937-9.116-0.966-13.674L34.541,260.521z"/>
<path style="fill:#BEE86E;" d="M362.339,77.053c-1.233-3.454-0.041-7.308,2.928-9.462l33.354-24.198C357.863,15.997,308.802,0,256,0
	C172.112,0,97.688,40.371,51.012,102.726l18.802,27.879c2.548,3.782,1.548,8.919-2.226,11.468c-1.419,0.952-3.024,1.411-4.613,1.411
	c-2.653,0-5.258-1.274-6.855-3.637L40.908,117.29c-16.131,24.973-28.04,52.922-34.709,82.852l17.832,24.171
	c1.814,2.459,5.302,2.931,7.705,1.043l11.356-8.923c2.16-1.698,3.438-4.281,3.475-7.028l0.15-11.085
	c0.027-1.957-0.579-3.87-1.726-5.456l-8.33-11.51c-2.669-3.694-1.839-8.855,1.855-11.532c3.685-2.661,8.855-1.847,11.532,1.855
	L61.78,187.32c2.898,3.864,7.342,6.266,12.162,6.573l7.995,0.51c3.309,0.211,6.172,2.381,7.268,5.511l15.68,44.759
	c0.926,2.644,2.776,4.865,5.209,6.256c5.8,3.315,13.193,1.076,16.18-4.899l9.11-18.221c1.249-2.499,3.113-4.641,5.415-6.223
	l16.62-11.426c7.234-4.973,17.095-3.418,22.448,3.54l19.162,24.91c1.438,1.869,3.605,3.034,5.957,3.202l14.488,42.865
	c1.008,3.669,4.331,6.073,7.96,6.073c0.726,0,1.46-0.097,2.194-0.29c4.395-1.21,6.984-5.75,5.782-10.153l-6.235-22.755l14.086-4.438
	c6.926-2.568,11.304-9.422,10.723-16.786l-1.114-14.105c-0.59-7.471,3.925-14.403,10.997-16.885l41.892-14.699
	c3.021-1.06,5.157-3.77,5.481-6.954l3.946-38.669c0.429-4.204,2.849-7.948,6.506-10.065c5.732-3.319,12.811,1.257,12.14,7.846
	l-0.721,7.074c-0.46,4.54,2.847,8.589,7.379,9.056c0.29,0.024,0.573,0.04,0.847,0.04c4.185,0,7.774-3.169,8.21-7.419l4.032-39.57
	c0.28-2.744,1.934-5.159,4.394-6.41l5.04-2.564c4.203-1.597,6.356-6.263,4.844-10.497L362.339,77.053z"/>
<g>
	<path style="fill:#AFD755;" d="M62.976,143.484c-2.653,0-5.258-1.274-6.855-3.637L40.908,117.29
		c-16.131,24.973-28.04,52.922-34.709,82.852l17.832,24.171c1.814,2.459,5.302,2.931,7.705,1.043l11.356-8.923
		c2.16-1.698,3.438-4.281,3.475-7.028l0.15-11.085c0.027-1.957-0.579-3.87-1.726-5.456l-8.33-11.51
		c-2.669-3.694-1.839-8.855,1.855-11.532c3.685-2.661,8.855-1.847,11.532,1.855L61.78,187.32c2.898,3.864,7.342,6.266,12.162,6.573
		l7.995,0.51c1.122,0.072,2.153,0.437,3.121,0.92c-0.692-7.673-1.102-15.427-1.102-23.281c0-49.111,13.862-94.968,37.839-133.939
		C94.346,55.06,70.284,76.976,51.011,102.724l18.802,27.879c2.548,3.782,1.548,8.919-2.226,11.468
		C66.169,143.024,64.565,143.484,62.976,143.484z"/>
	<path style="fill:#AFD755;" d="M359.76,427.237l3.498,4.175c3.508,4.186,10.04,3.876,13.135-0.625l4.174-6.072
		C373.711,425.811,366.787,426.699,359.76,427.237z"/>
</g>
<g>
</g>
<g>
</g>
<g>
</g>
<g>
</g>
<g>
</g>
<g>
</g>
<g>
</g>
<g>
</g>
<g>
</g>
<g>
</g>
<g>
</g>
<g>
</g>
<g>
</g>
<g>
</g>
<g>
</g>
</svg>
