<svg xmlns="http://www.w3.org/2000/svg" viewBox="0 0 402 512" width="402" height="512">
	<style>
		tspan { white-space:pre }
		.shp0 { fill: #59c230 } 
		.shp1 { fill: #9cda82 } 
		.shp2 { fill: #f9f6dc } 
		.shp3 { fill: #333333 } 
	</style>
	<g id="Layer">
		<path id="Layer" class="shp0" d="M286.64 386.86C221.31 391.24 166.63 337.2 164.75 271.75C164.13 250.06 152.84 230.14 134.55 218.46C79.38 183.23 63.21 109.94 98.45 54.76C133.68 -0.42 206.98 -16.59 262.15 18.64C346.69 72.63 398.87 164.71 401.74 264.97C403.04 310.41 373.24 381.04 286.64 386.86L286.64 386.86Z" />
		<path id="Layer" class="shp0" d="M331.09 236.37C329.77 181.99 304.13 108.29 225.4 76.16C171.77 54.28 116.25 68.52 86.29 79.82C68.74 130.46 87.4 188.36 134.55 218.46C152.84 230.14 164.13 250.06 164.75 271.75C166.62 337.2 221.31 391.24 286.63 386.86C351.32 382.51 384.32 342 396.34 302.84C358.64 302.43 332.04 275.89 331.09 236.37L331.09 236.37Z" />
		<path id="Layer" class="shp1" d="M42.6 483.4C-8.79 442.83 -13.08 366.06 29.43 316.27C43.52 299.77 48.52 277.43 42.79 256.5C25.51 193.35 62.69 128.15 125.84 110.88C188.99 93.59 254.19 130.78 271.46 193.92C297.94 290.66 274.86 393.96 209.73 470.23C180.21 504.8 110.72 537.19 42.6 483.4L42.6 483.4Z" />
		<path id="Layer" class="shp2" d="M139.8 309.57C149.77 264.96 121.68 220.71 77.07 210.75C64.21 207.87 51.38 208.18 39.39 211.11C37.62 225.89 38.6 241.25 42.78 256.5C48.5 277.43 43.51 299.77 29.42 316.27C19.23 328.21 11.74 341.69 6.93 355.86C16.55 363.65 28.07 369.43 40.96 372.3C85.58 382.28 129.83 354.19 139.8 309.57L139.8 309.57Z" />
		<g id="Layer">
			<path id="Layer" class="shp3" d="M209.07 206.45C204.87 205.7 202.07 201.69 202.82 197.49L205.07 184.86C205.82 180.66 209.83 177.86 214.03 178.61C218.23 179.36 221.03 183.38 220.29 187.57L218.04 200.2C217.29 204.4 213.27 207.2 209.07 206.45Z" />
			<path id="Layer" class="shp3" d="M112.91 189.32C108.71 188.57 105.91 184.56 106.66 180.36L108.91 167.73C109.66 163.53 113.67 160.73 117.87 161.48C122.07 162.23 124.87 166.24 124.12 170.45L121.87 183.07C121.13 187.27 117.11 190.07 112.91 189.32Z" />
			<path id="Layer" class="shp3" d="M168.89 183.61C166.75 185.8 164.21 185.66 163.2 185.48C162.19 185.31 159.71 184.58 158.5 181.76C156.82 177.84 152.28 176.02 148.36 177.7C144.44 179.38 142.62 183.92 144.3 187.84C147.2 194.61 153.25 199.41 160.49 200.7C167.73 201.99 175.07 199.57 180.13 194.23C183.05 191.13 182.92 186.23 179.82 183.3C178.68 182.23 173.38 179.02 168.89 183.61Z" />
		</g>
	</g>
</svg>